<?xml version="1.0" ?>

<svg version="1.0" xmlns="http://www.w3.org/2000/svg"
 width="500" height="500" viewBox="0 0 1500.000000 1500.000000"
 preserveAspectRatio="xMidYMid meet">

<g transform="translate(0.000000,1500.000000) scale(0.100000,-0.100000)"
fill="#5e7d7d" stroke="none">
<path d="M4930 13950 c-641 -50 -1282 -251 -1859 -584 -114 -66 -416 -266
-431 -285 -3 -4 -27 -25 -55 -46 -375 -298 -726 -695 -1007 -1140 -438 -692
-673 -1603 -628 -2436 48 -894 333 -1708 831 -2371 136 -181 203 -257 499
-562 91 -94 230 -238 310 -320 376 -389 1864 -1870 1990 -1981 255 -225 538
-428 775 -555 17 -9 49 -29 72 -44 27 -18 49 -26 60 -22 10 4 14 4 10 -1 -11
-10 233 -125 250 -119 8 3 11 1 8 -4 -3 -6 -5 -10 -3 -10 2 0 37 -14 78 -31
135 -55 210 -80 222 -73 6 4 8 3 5 -3 -8 -13 77 -38 94 -28 7 5 10 4 6 -2 -4
-6 9 -15 31 -21 20 -6 69 -19 107 -30 39 -12 81 -23 95 -26 14 -3 54 -13 89
-21 105 -26 317 -64 476 -86 295 -40 850 -36 1105 8 47 8 101 16 120 19 191
25 567 124 778 206 59 22 126 47 149 55 24 9 40 19 37 24 -3 5 1 7 8 4 12 -5
151 54 237 99 27 14 31 20 20 28 -10 7 -8 8 8 3 31 -9 223 92 206 109 -4 4 0
4 9 1 9 -4 42 11 82 37 148 95 256 167 292 194 124 90 155 113 210 159 33 27
76 63 95 78 123 101 344 317 1381 1361 640 643 1169 1175 1176 1183 96 97 297
354 408 521 35 53 70 106 78 118 8 11 47 78 88 150 228 399 389 836 482 1304
181 911 43 1923 -374 2761 -82 164 -193 355 -275 473 -35 49 -238 321 -249
332 -6 6 -40 44 -76 85 -35 41 -120 129 -188 197 -107 105 -169 163 -338 313
-56 49 -316 241 -414 304 -156 102 -325 196 -500 277 -220 102 -259 117 -440
177 -426 142 -783 200 -1284 208 -622 11 -1044 -57 -1561 -249 -224 -83 -375
-152 -587 -269 -59 -33 -120 -62 -136 -65 -23 -5 -56 8 -158 62 -344 180 -633
300 -874 365 -327 89 -455 114 -735 149 -185 23 -621 34 -805 20z m770 -699
c329 -41 600 -112 909 -237 155 -63 233 -104 229 -121 -2 -6 -176 -187 -388
-400 -212 -214 -775 -783 -1251 -1264 -803 -810 -968 -981 -1075 -1114 -490
-605 -805 -1331 -913 -2100 -29 -205 -31 -223 -40 -419 -14 -281 3 -585 50
-875 11 -68 18 -130 15 -138 -16 -41 -54 -11 -301 239 -325 328 -370 377 -498
535 -538 662 -808 1432 -811 2308 -2 414 51 742 180 1130 70 211 215 529 309
675 12 19 39 62 60 95 78 125 272 398 295 415 4 3 31 34 61 70 117 141 320
331 535 501 142 113 429 286 614 372 383 177 845 304 1245 343 190 18 570 11
775 -15z m4341 4 c417 -37 798 -139 1172 -314 199 -93 308 -155 506 -285 251
-166 586 -465 747 -665 158 -196 270 -354 368 -518 60 -100 200 -398 251 -533
231 -611 296 -1290 184 -1930 -72 -416 -210 -802 -422 -1185 -45 -80 -218
-344 -254 -386 -16 -19 -36 -45 -45 -59 -35 -56 -321 -360 -568 -605 -307
-305 -294 -301 -255 -76 79 461 67 1105 -29 1578 -116 567 -355 1111 -698
1586 -112 156 -298 387 -363 452 -12 11 -77 81 -145 155 -68 74 -408 421 -756
770 -347 349 -769 775 -937 945 -168 171 -391 395 -496 500 -105 104 -191 194
-191 201 0 26 361 176 580 241 207 61 510 116 730 132 177 13 447 12 621 -4z
m-2411 -1014 c86 -33 148 -86 497 -427 179 -175 335 -328 347 -339 40 -38 144
-163 184 -222 148 -218 223 -511 209 -808 -35 -707 -535 -1267 -1241 -1390
-107 -18 -345 -21 -441 -6 -235 39 -427 122 -625 270 -73 55 -203 183 -253
249 -22 28 -43 52 -48 52 -5 0 -8 3 -7 8 1 4 -6 21 -16 37 -11 17 -29 46 -41
65 -12 20 -36 67 -53 105 -182 421 -171 860 31 1260 38 77 62 102 546 586 536
535 551 549 671 576 72 16 171 10 240 -16z m1991 -1858 c334 -310 640 -645
818 -897 351 -498 555 -1026 638 -1656 22 -169 25 -667 5 -830 -15 -118 -50
-337 -58 -359 -3 -10 -71 53 -202 186 -225 229 -301 298 -510 463 -131 103
-458 330 -475 330 -4 0 -35 18 -71 39 -65 40 -317 171 -329 171 -3 0 -41 17
-84 38 -136 66 -415 162 -633 217 -147 37 -458 92 -610 107 -180 17 -757 17
-905 0 -247 -30 -348 -45 -505 -78 -163 -34 -201 -44 -415 -110 -536 -167
-1027 -444 -1485 -838 -118 -101 -372 -352 -470 -465 -36 -40 -80 -90 -98
-110 -18 -20 -74 -89 -125 -154 l-92 -119 -14 34 c-42 101 -94 327 -121 528
-80 595 -30 1130 156 1686 121 362 297 699 529 1009 33 44 62 82 65 85 3 3 45
52 95 110 115 135 169 191 403 424 106 105 199 192 208 194 29 7 40 -16 42
-90 8 -192 59 -431 132 -618 63 -162 214 -434 234 -423 6 3 8 3 4 -2 -10 -11
93 -142 194 -247 192 -200 415 -352 672 -459 150 -62 296 -101 491 -129 131
-20 177 -22 375 -17 193 4 243 9 350 31 390 83 742 277 1048 579 46 45 98 100
115 122 18 21 45 53 60 70 47 50 192 274 240 370 110 222 189 508 204 745 6
98 16 140 32 140 5 0 46 -35 92 -77z m-1801 -2853 c716 -50 1323 -251 1861
-615 161 -109 165 -112 299 -225 220 -185 476 -454 677 -710 104 -133 108
-160 41 -266 -21 -34 -38 -64 -38 -67 0 -5 -97 -161 -178 -287 -40 -62 -179
-244 -256 -335 -85 -101 -301 -312 -406 -396 -286 -230 -585 -408 -897 -534
-39 -16 -69 -34 -66 -39 4 -5 1 -6 -5 -2 -6 4 -46 -7 -89 -24 -43 -16 -84 -30
-91 -30 -7 0 -10 -5 -6 -12 4 -7 3 -8 -5 -4 -6 4 -39 -2 -73 -14 -67 -23 -395
-109 -443 -115 -16 -3 -70 -11 -120 -20 -321 -53 -702 -57 -1036 -10 -56 8
-106 12 -110 9 -4 -2 -10 0 -13 5 -3 5 -29 12 -57 16 -54 8 -257 57 -404 99
-102 29 -378 132 -442 164 -23 12 -49 22 -57 22 -8 0 -16 4 -18 8 -1 5 -46 30
-98 57 -114 57 -287 160 -410 245 -366 250 -712 601 -945 960 -88 135 -88 150
0 295 223 361 464 644 800 940 132 116 380 291 560 395 98 56 337 174 437 216
113 46 371 132 488 162 280 72 385 88 725 115 91 8 239 6 375 -3z"/>
</g>
</svg>
